<?xml version="1.0" encoding="utf-8"?>
<!-- Generator: Adobe Illustrator 27.5.0, SVG Export Plug-In . SVG Version: 6.00 Build 0)  -->
<svg version="1.1" xmlns="http://www.w3.org/2000/svg" xmlns:xlink="http://www.w3.org/1999/xlink" x="0px" y="0px"
	 viewBox="0 0 500 500" style="enable-background:new 0 0 500 500;" xml:space="preserve">
<g id="BACKGROUND">
	<rect style="fill:#FFFFFF;" width="500" height="500"/>
</g>
<g id="OBJECTS">
	<g>
		<path style="fill:#EDEDFF;" d="M471.848,246.459c-26.766,110.246-152.872,154.889-249.316,156.581
			c-54.863,0.963-115.736-12.548-158.535-55.05c-78.433-77.89-33.925-271,83.421-252.45c45.762,7.234,91.889,37.937,138.447,25.722
			c29.118-7.64,51.858-22.765,83.522-20.926c51.265,2.977,95.166,41.687,104.278,96.884
			C476.509,214.456,475.621,230.921,471.848,246.459z"/>
		<g>
			<path style="fill:#A7A7BA;" d="M468.602,405.708H35.035c-2.286,0-4.14-1.854-4.14-4.14l0,0c0-2.286,1.853-4.14,4.14-4.14h433.567
				c2.286,0,4.14,1.854,4.14,4.14l0,0C472.742,403.854,470.889,405.708,468.602,405.708z"/>
			<g>
				<g>
					<g>
						<path style="fill:#FFA45E;" d="M225.252,285.992c19.674,32.229,32.767,71.623,34.297,71.98
							c2.072,0.484,48.296,13.612,72.706,19.88l-3.074,16.535c-31.106-0.829-80.633-3.767-88.126-9.562
							c-11.602-8.972-41.796-72.237-50.352-87.518C203.225,295.21,214.539,293.177,225.252,285.992z"/>
						<g>
							<g>
								<g>
									<path style="fill:#FFA45E;" d="M324.773,376.977c0,0,7.633,1.403,11.615-0.108c3.982-1.511,8.321-5.566,11.868-5.322
										c3.546,0.244,13.855,0.85,18.266,2.647c4.411,1.796,9.881,3.561,8.956,5.304c-0.925,1.743-3.139,2.356-4.917,2.057
										c0,0,1.773,1.146,1.437,2.951c-0.337,1.806-4.21,1.948-4.21,1.948s3.47,3.518-0.66,4.653c0,0-0.603,3.561-2.798,5.125
										c-2.195,1.563-5.685,2.243-9.379,1.622c-3.694-0.621-10.765-0.402-15.19-0.864c-4.424-0.462-17.161-3.049-17.161-3.049
										S318.829,378.731,324.773,376.977z"/>
									<g>
										<path style="fill:#FFA45E;" d="M370.56,381.555c-3.188-0.257-6.283-0.887-9.358-1.604
											c-1.537-0.384-3.05-0.765-4.586-1.251c-1.519-0.494-3.007-1.098-4.388-1.913l4.635,0.966
											c1.529,0.279,3.093,0.617,4.626,0.977C364.557,379.489,367.606,380.336,370.56,381.555z"/>
									</g>
									<g>
										<path style="fill:#FFA45E;" d="M367.787,386.454c-1.457,0.058-2.883-0.004-4.301-0.109
											c-1.408-0.115-2.828-0.232-4.283-0.476c-1.425-0.272-2.819-0.626-4.184-1.074c-1.366-0.441-2.712-0.949-4.008-1.6
											c2.875,0.309,5.65,0.941,8.415,1.44c0.697,0.147,1.353,0.221,2.069,0.342c0.706,0.133,1.415,0.245,2.117,0.402
											C365.02,385.667,366.418,386,367.787,386.454z"/>
									</g>
									<g>
										<path style="fill:#FFA45E;" d="M367.127,391.107c-1.159,0.951-2.595,1.518-4.038,1.909l-0.547,0.138l-0.598,0.086
											c-0.394,0.036-0.781,0.051-1.161,0.046c-0.761-0.019-1.507-0.096-2.244-0.193c-1.473-0.221-2.917-0.534-4.334-0.946
											c-1.418-0.406-2.814-0.887-4.161-1.519c2.954,0.266,5.816,0.82,8.671,1.222c0.711,0.118,1.422,0.194,2.123,0.252
											c0.349,0.034,0.697,0.046,1.033,0.044c0.318-0.011,0.665-0.037,1.027-0.087
											C364.314,391.858,365.728,391.593,367.127,391.107z"/>
									</g>
								</g>
							</g>
						</g>
					</g>
					<path style="fill:#1B1B1B;" d="M177.573,282.395c0,0,29.988,7.769,45.223-2.364c0,0,6.123-169.595-67.901-159.597
						c-74.023,9.998-54.665,161.961-54.665,161.961H177.573z"/>
					<path style="fill:#FFC685;" d="M126.372,249.434c1.287-0.81,4.304-2.946,7.004-6.59c3.648-4.924,8.128-12.966,5.514-23.852
						c0,0,26.471-9.784,41.199-0.21c0,0-4.569,21.463,8.686,29.563c-3.223,32.75-10.064,54.884-10.064,54.884l-52.922-53.352
						C125.984,249.729,126.179,249.582,126.372,249.434z"/>
					<ellipse style="fill:#FFC685;" cx="159.966" cy="181.616" rx="35.864" ry="48.094"/>
					<g>
						<path style="fill:#1B1B1B;" d="M139.843,174.684c0,2.314,1.115,4.19,2.491,4.19s2.491-1.876,2.491-4.19
							c0-2.314-1.115-4.19-2.491-4.19S139.843,172.37,139.843,174.684z"/>
					</g>
					<g>
						<path style="fill:#1B1B1B;" d="M180.089,174.684c0,2.314-1.115,4.19-2.491,4.19s-2.491-1.876-2.491-4.19
							c0-2.314,1.115-4.19,2.491-4.19S180.089,172.37,180.089,174.684z"/>
					</g>
					<g style="opacity:0.48;">
						<g>
							<ellipse style="fill:#FF9C91;" cx="137.571" cy="190.614" rx="8.343" ry="7.101"/>
							<ellipse style="fill:#FF9C91;" cx="182.361" cy="190.614" rx="8.343" ry="7.101"/>
						</g>
					</g>
					<g>
						<g>
							<g>
								<g>
									<path style="fill:#FFC685;" d="M125.007,174.848c-1.281-0.561-1.816-1.779-3.508-2.04
										c-12.018-1.858-7.996,25.806,4.896,23.683C126.395,196.49,129.791,176.94,125.007,174.848z"/>
								</g>
								<g>
									<path style="fill:#FFC685;" d="M194.686,174.848c1.282-0.561,1.816-1.779,3.508-2.04
										c12.018-1.858,7.996,25.806-4.896,23.683C193.298,196.49,189.902,176.94,194.686,174.848z"/>
								</g>
							</g>
						</g>
					</g>
					<path style="fill:#B85C44;" d="M125.73,249.817c0,0,0.239-0.129,0.642-0.382c-0.192,0.148-0.388,0.295-0.583,0.441
						L125.73,249.817z"/>
					<polygon style="fill:#26A59A;" points="105.964,259.513 105.964,259.514 105.965,259.513 					"/>
					<path style="fill:#FF6454;" d="M115.302,322.193c1.861,9.696,3.067,19.561,3.698,29.411
						c1.021,15.931,1.755,32.083-8.462,45.686c-0.436,0.581-0.847,1.175-1.277,1.759h111.667c-1.309-2.108-2.497-4.284-3.463-6.586
						c-0.223-0.532-0.425-1.059-0.605-1.583c-4.72-13.7,4.771-24.871,9.04-37.521c2.153-6.379,3.243-12.886,2.968-19.647
						c-0.784-19.311-12.35-36.375-19.884-53.528c-3.206-7.299-6.377-14.614-9.515-21.943c-0.377-0.881-2.544-8.011-3.507-8.234
						c-11.893-2.749-14.759-13.399-14.759-13.399c-13.086,10.276-45.445,2.343-45.445,2.343
						c-5.125,8.199-14.603,13.89-21.496,17.173c-4.762,2.268-8.291,3.389-8.298,3.391
						C115.911,277.711,115.302,322.193,115.302,322.193z"/>
					<g>
						<path style="fill:#FFA45E;" d="M160.434,172.718c0.137,1.995,0.268,3.962,0.51,5.901c0.257,1.927,0.56,3.864,1.261,5.587
							c0.146,0.447,0.376,0.834,0.579,1.24c0.262,0.383,0.461,0.664,0.843,1.168c0.318,0.474,0.596,1.096,0.537,1.795
							c-0.042,0.705-0.456,1.275-0.882,1.646c-0.871,0.763-1.869,1.092-2.844,1.371c-0.987,0.248-1.983,0.409-2.987,0.433
							c0.945-0.328,1.875-0.665,2.756-1.078c0.871-0.401,1.743-0.882,2.31-1.501c0.574-0.645,0.555-1.228,0.031-1.905
							c-0.237-0.269-0.627-0.788-0.927-1.218c-0.255-0.471-0.537-0.939-0.71-1.433c-0.764-1.971-1.003-4.014-1.048-6.028
							C159.82,176.681,159.995,174.673,160.434,172.718z"/>
					</g>
					<path style="fill:#FFFFFF;" d="M151.433,201.12h17.067c0,0-2.582,7.361-8.533,7.836
						C154.015,209.43,151.433,201.12,151.433,201.12z"/>
					<g>
						<g>
							<path style="fill:#1B1B1B;" d="M168.221,167.402c0.802-1.474,2.191-2.534,3.705-3.239c1.529-0.702,3.241-1.025,4.931-0.988
								c1.685,0.088,3.347,0.473,4.824,1.205c0.751,0.332,1.421,0.827,2.084,1.285c0.624,0.534,1.219,1.091,1.729,1.737
								c-0.852-0.049-1.601-0.228-2.355-0.354c-0.769-0.079-1.475-0.277-2.2-0.353c-1.429-0.24-2.81-0.346-4.178-0.431
								c-1.37-0.028-2.729,0.03-4.128,0.216C171.225,166.662,169.803,166.951,168.221,167.402z"/>
						</g>
						<g>
							<path style="fill:#1B1B1B;" d="M134.436,167.402c0.802-1.474,2.191-2.534,3.705-3.239c1.529-0.702,3.241-1.025,4.931-0.988
								c1.685,0.088,3.347,0.473,4.824,1.205c0.751,0.332,1.422,0.827,2.085,1.285c0.624,0.534,1.219,1.091,1.729,1.737
								c-0.852-0.049-1.601-0.228-2.355-0.354c-0.769-0.079-1.475-0.277-2.2-0.353c-1.429-0.24-2.81-0.346-4.178-0.431
								c-1.37-0.028-2.729,0.03-4.128,0.216C137.44,166.662,136.018,166.951,134.436,167.402z"/>
						</g>
					</g>
					<path style="fill:#1B1B1B;" d="M140.906,146.091c0,0,7.519,11.041,22.657,17.809l-5.27-12.822c0,0,16.397,16.03,36.87,21.194
						c0,0,8.542-33.66-33.487-45.948c-42.028-12.288-41.252,49.686-41.252,49.686S140.444,158.201,140.906,146.091z"/>
					<g>
						
							<path style="fill:none;stroke:#A7A7BA;stroke-width:4.3524;stroke-linecap:round;stroke-linejoin:round;stroke-miterlimit:10;" d="
							M198.755,181.617c0-26.562-17.367-48.094-38.789-48.094c-21.423,0-38.789,21.532-38.789,48.094"/>
						<g>
							<path style="fill:#A7A7BA;" d="M197.202,196.63l-2.887-0.101l0.847-24.258l2.887,0.101
								c6.699,0.234,11.939,5.854,11.705,12.553l0,0C209.521,191.623,203.901,196.864,197.202,196.63z"/>
							<path style="fill:#9090A1;" d="M197.122,172.479l2.666,0.093c-0.568-0.102-1.145-0.18-1.738-0.2l-2.887-0.101l-0.847,24.258
								l1.964,0.068L197.122,172.479z"/>
						</g>
						<g>
							<path style="fill:#A7A7BA;" d="M123.01,196.838l2.887-0.101l-0.847-24.258l-2.887,0.101
								c-6.699,0.234-11.939,5.854-11.705,12.553l0,0C110.691,191.831,116.312,197.072,123.01,196.838z"/>
							<path style="fill:#9090A1;" d="M123.09,172.687l-2.666,0.093c0.568-0.102,1.145-0.18,1.739-0.2l2.887-0.101l0.847,24.258
								l-1.964,0.068L123.09,172.687z"/>
						</g>
					</g>
					<path style="fill:#FFA45E;" d="M180.089,221.431c0,0-22.492,16.12-40.811-0.541l-0.446,11.024
						C138.832,231.914,168.463,238.855,180.089,221.431z"/>
					<g>
						<path style="fill:#FFC685;" d="M126.752,285.241c19.674,32.229,32.767,71.623,34.297,71.98
							c2.072,0.484,48.296,13.611,72.706,19.879l-3.074,16.535c-31.106-0.829-80.633-3.767-88.126-9.562
							c-11.602-8.972-41.796-72.237-50.352-87.518C104.724,294.46,116.038,292.426,126.752,285.241z"/>
						<g>
							<g>
								<g>
									<g>
										<path style="fill:#FFC685;" d="M226.272,376.226c0,0,7.633,1.403,11.615-0.108c3.982-1.512,8.321-5.566,11.867-5.322
											c3.547,0.244,13.855,0.85,18.266,2.647c4.411,1.796,9.881,3.561,8.956,5.304c-0.925,1.743-3.138,2.356-4.917,2.057
											c0,0,1.773,1.146,1.437,2.951c-0.337,1.806-4.21,1.948-4.21,1.948s3.47,3.518-0.66,4.653c0,0-0.603,3.561-2.798,5.125
											c-2.195,1.563-5.685,2.243-9.379,1.622c-3.694-0.621-10.765-0.402-15.189-0.864c-4.424-0.462-17.161-3.049-17.161-3.049
											S220.329,377.98,226.272,376.226z"/>
									</g>
									<g>
										<path style="fill:#FFA45E;" d="M272.06,380.805c-3.188-0.257-6.283-0.887-9.358-1.604
											c-1.537-0.384-3.05-0.765-4.586-1.251c-1.52-0.494-3.007-1.098-4.388-1.913l4.635,0.966
											c1.529,0.279,3.093,0.617,4.625,0.977C266.057,378.738,269.105,379.585,272.06,380.805z"/>
									</g>
									<g>
										<path style="fill:#FFA45E;" d="M269.286,385.703c-1.457,0.058-2.883-0.004-4.301-0.109
											c-1.408-0.115-2.828-0.232-4.283-0.476c-1.425-0.272-2.818-0.626-4.184-1.074c-1.366-0.441-2.712-0.949-4.008-1.6
											c2.876,0.309,5.651,0.941,8.415,1.44c0.697,0.147,1.353,0.221,2.069,0.341c0.706,0.133,1.415,0.245,2.117,0.402
											C266.519,384.917,267.918,385.25,269.286,385.703z"/>
									</g>
									<g>
										<path style="fill:#FFA45E;" d="M268.626,390.357c-1.159,0.951-2.595,1.518-4.038,1.909l-0.547,0.138l-0.598,0.086
											c-0.394,0.036-0.781,0.051-1.161,0.046c-0.761-0.019-1.507-0.096-2.244-0.193c-1.473-0.221-2.917-0.534-4.334-0.946
											c-1.418-0.406-2.814-0.887-4.161-1.518c2.954,0.266,5.816,0.82,8.671,1.222c0.711,0.118,1.422,0.195,2.123,0.252
											c0.349,0.034,0.697,0.046,1.033,0.044c0.318-0.011,0.665-0.037,1.027-0.087
											C265.814,391.108,267.228,390.843,268.626,390.357z"/>
									</g>
								</g>
							</g>
						</g>
					</g>
					<path style="fill:#FF6454;" d="M135.758,238.949c0,0-31.986,8.311-46.664,23.742c-14.678,15.431,19.194,71.132,19.194,71.132
						l40.271-15.996L135.758,238.949z"/>
					<path style="fill:#CF5144;" d="M144.62,319.392l-11.657-40.894c0,0,16.913,38.814,15.596,49.704L144.62,319.392z"/>
					<path style="fill:#FF6454;" d="M181.203,236.606c0,0,23.559,3.214,31.588,13.27c8.029,10.055,20.965,49.682,20.965,49.682
						l-26.276,8.046C207.479,307.603,174.203,247.906,181.203,236.606z"/>
					<polygon style="fill:#CF5144;" points="220.496,303.617 224.032,302.535 206.995,270.218 					"/>
				</g>
				<g>
					<path style="fill:#C2C2D1;" d="M401.466,358.545H260.472c-4.45,0-8.057-3.607-8.057-8.057v-93.741
						c0-4.45,3.607-8.057,8.057-8.057h140.994c4.45,0,8.057,3.607,8.057,8.057v93.741
						C409.523,354.938,405.916,358.545,401.466,358.545z"/>
					<path style="fill:#A7A7BA;" d="M257.03,350.488v-93.741c0-4.45,3.607-8.057,8.057-8.057h-4.615
						c-4.45,0-8.057,3.607-8.057,8.057v93.741c0,4.45,3.607,8.057,8.057,8.057h4.615C260.637,358.545,257.03,354.938,257.03,350.488
						z"/>
					<path style="fill:#A7A7BA;" d="M318.924,303.295v57.366c0,11.833-6.249,22.787-16.435,28.809l-15.51,9.169h44.039
						c18.483,0,33.467-14.984,33.467-33.467v-61.878H318.924z"/>
					<polygon style="fill:#9090A1;" points="318.924,303.295 309.759,358.545 318.924,358.545 					"/>
				</g>
				<g>
					<g>
						<path style="fill:#66B367;" d="M416.854,374.83c0,0-26.645-76.548,0-75.256c26.645,1.292,11.557,75.256,11.557,75.256H416.854
							z"/>
						<path style="fill:#66B367;" d="M426.822,333.932c0,0,10.786,3.512,13.046-3.76c1.515-4.873,0.719-10.698,5.156-14.144
							c3.123-2.425,6.34-1.664,7.737,2.029c2.327,6.151,1.245,18.993-5.365,22.4c-8.28,4.265-18.818-1.449-18.818-1.449
							L426.822,333.932z"/>
						<path style="fill:#66B367;" d="M413.734,347.636c0,0-10.786,3.512-13.046-3.76c-1.515-4.873-0.719-10.698-5.156-14.144
							c-3.123-2.425-6.34-1.664-7.737,2.029c-2.327,6.15-1.245,18.993,5.365,22.399c8.28,4.266,18.818-1.448,18.818-1.448
							L413.734,347.636z"/>
						<g>
							<g>
								<g>
									
										<line style="fill:none;stroke:#7AD67B;stroke-width:0.737;stroke-linecap:round;stroke-linejoin:round;" x1="450.031" y1="316.494" x2="450.031" y2="316.494"/>
									
										<path style="fill:none;stroke:#7AD67B;stroke-width:0.737;stroke-linecap:round;stroke-linejoin:round;stroke-dasharray:0,0,0,1.4591;" d="
										M450.473,317.88c0.859,3.025,2.371,10.41-1.195,16.177c-3.93,6.354-13.324,4.964-15.977,4.425"/>
									
										<line style="fill:none;stroke:#7AD67B;stroke-width:0.737;stroke-linecap:round;stroke-linejoin:round;" x1="432.593" y1="338.323" x2="432.593" y2="338.323"/>
								</g>
							</g>
							<g>
								<g>
									
										<line style="fill:none;stroke:#7AD67B;stroke-width:0.737;stroke-linecap:round;stroke-linejoin:round;" x1="446.393" y1="317.152" x2="446.393" y2="317.152"/>
									
										<path style="fill:none;stroke:#7AD67B;stroke-width:0.737;stroke-linecap:round;stroke-linejoin:round;stroke-dasharray:0,0,0,1.4471;" d="
										M446.535,318.589c0.314,4.525,0.164,18.14-13.148,17.344"/>
									
										<line style="fill:none;stroke:#7AD67B;stroke-width:0.737;stroke-linecap:round;stroke-linejoin:round;" x1="432.666" y1="335.876" x2="432.666" y2="335.876"/>
								</g>
							</g>
							<g>
								<g>
									
										<line style="fill:none;stroke:#7AD67B;stroke-width:0.737;stroke-linecap:round;stroke-linejoin:round;" x1="389.813" y1="330.921" x2="389.813" y2="330.921"/>
									
										<path style="fill:none;stroke:#7AD67B;stroke-width:0.737;stroke-linecap:round;stroke-linejoin:round;stroke-dasharray:0,0,0,1.4945;" d="
										M389.639,332.405c-0.535,4.735-0.859,9.834,0.703,14.346c2.319,6.698,9.4,6.652,15.443,5.672
										c0.837-0.136,1.672-0.296,2.497-0.493"/>
									
										<line style="fill:none;stroke:#7AD67B;stroke-width:0.737;stroke-linecap:round;stroke-linejoin:round;" x1="409.007" y1="351.746" x2="409.007" y2="351.746"/>
								</g>
							</g>
							<g>
								<g>
									
										<line style="fill:none;stroke:#7AD67B;stroke-width:0.737;stroke-linecap:round;stroke-linejoin:round;" x1="409.007" y1="349.864" x2="409.007" y2="349.864"/>
									
										<path style="fill:none;stroke:#7AD67B;stroke-width:0.737;stroke-linecap:round;stroke-linejoin:round;stroke-dasharray:0,0,0,1.4731;" d="
										M407.595,350.269c-2.609,0.606-8.12,1.199-10.38-3.792c-2.494-5.507-2.836-12.563-2.88-14.824"/>
									
										<line style="fill:none;stroke:#7AD67B;stroke-width:0.737;stroke-linecap:round;stroke-linejoin:round;" x1="394.329" y1="330.921" x2="394.329" y2="330.921"/>
								</g>
							</g>
							
								<path style="fill:none;stroke:#7AD67B;stroke-width:0.737;stroke-linecap:round;stroke-linejoin:round;stroke-miterlimit:10;stroke-dasharray:0,0,0,1.4741;" d="
								M418.839,301.439c0,0,10.241,16.987,10.617,37.568c0.376,20.58-3.575,31.871-3.575,31.871"/>
							
								<path style="fill:none;stroke:#7AD67B;stroke-width:0.737;stroke-linecap:round;stroke-linejoin:round;stroke-miterlimit:10;stroke-dasharray:0,0,0,1.4741;" d="
								M411.767,302.192c0,0-3.387,22.982-0.753,39.718c2.634,16.736,7.824,29.721,7.824,29.721"/>
							
								<path style="fill:none;stroke:#7AD67B;stroke-width:0.737;stroke-linecap:round;stroke-linejoin:round;stroke-miterlimit:10;stroke-dasharray:0,0,0,1.4741;" d="
								M415.719,302.192c0,0,13.173,35.566,7.151,69.439"/>
							
								<path style="fill:none;stroke:#7AD67B;stroke-width:0.737;stroke-linecap:round;stroke-linejoin:round;stroke-miterlimit:10;stroke-dasharray:0,0,0,1.4741;" d="
								M413.734,301.439c0,0-0.458,52.314,7.35,70.944"/>
						</g>
					</g>
					<g>
						<polygon style="fill:#FF6454;" points="434.916,397.485 407.253,397.485 402.831,362.671 439.338,362.671 						"/>
						<rect x="399.883" y="360.602" style="fill:#FF6454;" width="42.403" height="5.757"/>
						<polygon style="fill:#CF5144;" points="404.462,366.359 438.869,366.359 437.997,373.223 						"/>
					</g>
				</g>
				<g>
					<polygon style="fill:#FFBFB8;" points="93.077,397.612 63.669,397.612 58.968,360.602 97.778,360.602 					"/>
					
						<path style="fill:none;stroke:#FFBFB8;stroke-width:5.8963;stroke-linecap:round;stroke-linejoin:round;stroke-miterlimit:10;" d="
						M62.843,368.824h-8.479c-2.85,0-5.046,2.571-4.53,5.374c1.043,5.671,4.094,14.139,13.009,16.722"/>
					<polygon style="opacity:0.3;fill:#FFDDD9;" points="80.657,362.552 95.711,362.552 91.446,396.173 84.17,396.173 					"/>
				</g>
			</g>
		</g>
		<g>
			<g>
				<g>
					<path style="fill:#FFFFFF;" d="M261.571,137.515h-35.479c-2.517,0-4.558,2.041-4.558,4.558v16.023
						c0,2.349,1.784,4.261,4.068,4.508v6.711l9.895-6.661h26.074c2.517,0,4.558-2.04,4.558-4.558v-16.023
						C266.128,139.555,264.088,137.515,261.571,137.515z"/>
					<g>
						<g>
							<g>
								<path style="fill:#C2C2D1;" d="M235.026,150.011c0,1.688-1.369,3.057-3.057,3.057c-1.688,0-3.057-1.369-3.057-3.057
									c0-1.688,1.369-3.057,3.057-3.057C233.657,146.954,235.026,148.323,235.026,150.011z"/>
							</g>
							<g>
								<path style="fill:#C2C2D1;" d="M246.888,150.011c0,1.688-1.369,3.057-3.057,3.057c-1.688,0-3.057-1.369-3.057-3.057
									c0-1.688,1.369-3.057,3.057-3.057C245.52,146.954,246.888,148.323,246.888,150.011z"/>
							</g>
							<g>
								<path style="fill:#C2C2D1;" d="M258.751,150.011c0,1.688-1.369,3.057-3.057,3.057c-1.688,0-3.057-1.369-3.057-3.057
									c0-1.688,1.369-3.057,3.057-3.057C257.382,146.954,258.751,148.323,258.751,150.011z"/>
							</g>
						</g>
					</g>
				</g>
				<g>
					<path style="fill:#FFFFFF;" d="M254.115,167.26h32.034c2.273,0,4.115,1.842,4.115,4.115v14.467c0,2.121-1.611,3.847-3.673,4.07
						v6.059l-8.934-6.015h-23.542c-2.273,0-4.115-1.842-4.115-4.115v-14.467C250,169.103,251.842,167.26,254.115,167.26z"/>
					<g>
						<g>
							<g>
								<circle style="fill:#C2C2D1;" cx="280.843" cy="178.543" r="2.76"/>
							</g>
							<g>
								<path style="fill:#C2C2D1;" d="M267.372,178.543c0,1.524,1.236,2.76,2.76,2.76c1.524,0,2.76-1.236,2.76-2.76
									c0-1.524-1.236-2.76-2.76-2.76C268.608,175.783,267.372,177.019,267.372,178.543z"/>
							</g>
							<g>
								<path style="fill:#C2C2D1;" d="M256.661,178.543c0,1.524,1.236,2.76,2.76,2.76c1.524,0,2.76-1.236,2.76-2.76
									c0-1.524-1.236-2.76-2.76-2.76C257.897,175.783,256.661,177.019,256.661,178.543z"/>
							</g>
						</g>
					</g>
				</g>
			</g>
			<g>
				<g>
					<path style="fill:#FFFFFF;" d="M430.536,239.837h-36.664c-2.308,0-4.179-1.871-4.179-4.179v-19.272
						c0-2.308,1.871-4.179,4.179-4.179h36.664c2.308,0,4.179,1.871,4.179,4.179v19.272
						C434.715,237.966,432.844,239.837,430.536,239.837z"/>
					
						<polyline style="fill:none;stroke:#EDEDFF;stroke-width:2.1768;stroke-linecap:round;stroke-linejoin:round;stroke-miterlimit:10;" points="
						389.693,216.386 412.204,226.022 434.715,216.386 					"/>
				</g>
				<g>
					
						<ellipse transform="matrix(0.229 -0.9734 0.9734 0.229 122.2321 587.0995)" style="fill:#FF6454;" cx="431.747" cy="216.386" rx="7.41" ry="7.41"/>
					<text transform="matrix(1 0 0 1 426.625 218.5938)" style="fill:#FFFFFF; font-family:'Quicksand-Bold'; font-size:6.6732px;">123</text>
				</g>
			</g>
			<path style="fill:#C2C2D1;" d="M430.829,154.689c-0.204-0.565-0.75-0.937-1.35-0.937l-1.614,0
				c-0.287-1.066-0.691-2.084-1.199-3.038l1.239-1.239c0.425-0.425,0.547-1.074,0.292-1.618c-0.938-2.003-2.409-3.473-4.412-4.412
				c-0.544-0.255-1.193-0.133-1.618,0.292l-1.143,1.143c-0.938-0.54-1.94-0.982-2.994-1.305v-1.75c0-0.601-0.373-1.146-0.937-1.35
				c-2.08-0.753-4.159-0.753-6.239,0c-0.565,0.204-0.937,0.75-0.937,1.35v1.614c-1.066,0.287-2.083,0.691-3.038,1.199l-1.239-1.239
				c-0.425-0.425-1.074-0.547-1.618-0.292c-2.003,0.939-3.473,2.409-4.412,4.412c-0.255,0.544-0.132,1.193,0.292,1.618l1.143,1.143
				c-0.54,0.938-0.982,1.94-1.305,2.994h-1.75c-0.601,0-1.146,0.373-1.35,0.937c-0.753,2.08-0.753,4.159,0,6.239
				c0.204,0.565,0.75,0.937,1.35,0.937h1.614c0.287,1.066,0.691,2.084,1.199,3.038l-1.239,1.239
				c-0.425,0.425-0.547,1.074-0.292,1.618c0.938,2.003,2.409,3.473,4.412,4.412c0.544,0.255,1.193,0.132,1.618-0.292l1.143-1.143
				c0.938,0.54,1.94,0.982,2.995,1.305v1.75c0,0.6,0.373,1.146,0.937,1.35c2.08,0.753,4.159,0.753,6.239,0
				c0.565-0.204,0.937-0.75,0.937-1.35v-1.614c1.066-0.287,2.083-0.691,3.038-1.199l1.239,1.239
				c0.425,0.425,1.074,0.547,1.618,0.292c2.003-0.938,3.473-2.409,4.412-4.412c0.255-0.544,0.133-1.193-0.292-1.618l-1.143-1.143
				c0.54-0.938,0.982-1.94,1.305-2.994h1.75c0.6,0,1.146-0.373,1.35-0.937C431.582,158.848,431.582,156.768,430.829,154.689z
				 M413.734,167.679c-5.583,0-10.109-4.526-10.109-10.11c0-5.583,4.526-10.109,10.109-10.109c5.583,0,10.11,4.526,10.11,10.109
				C423.844,163.153,419.318,167.679,413.734,167.679z"/>
			<path style="fill:#C2C2D1;" d="M94.09,186.196c-0.313-0.866-1.15-1.437-2.071-1.437h-2.475c-0.441-1.634-1.06-3.195-1.838-4.659
				l1.9-1.9c0.651-0.651,0.839-1.647,0.448-2.481c-1.439-3.071-3.694-5.326-6.765-6.765c-0.834-0.391-1.829-0.203-2.48,0.448
				l-1.753,1.753c-1.439-0.828-2.975-1.505-4.592-2.001v-2.683c0-0.921-0.571-1.757-1.437-2.071c-3.189-1.154-6.378-1.154-9.567,0
				c-0.866,0.313-1.437,1.15-1.437,2.071v2.475c-1.634,0.441-3.195,1.06-4.659,1.838l-1.9-1.9c-0.651-0.651-1.647-0.839-2.48-0.448
				c-3.071,1.439-5.326,3.694-6.765,6.765c-0.391,0.834-0.203,1.829,0.448,2.48l1.753,1.753c-0.828,1.439-1.505,2.975-2.001,4.592
				h-2.683c-0.921,0-1.757,0.571-2.071,1.437c-1.154,3.189-1.154,6.378,0,9.567c0.313,0.866,1.15,1.437,2.071,1.437h2.475
				c0.441,1.634,1.06,3.195,1.838,4.659l-1.9,1.9c-0.651,0.651-0.839,1.647-0.448,2.48c1.439,3.071,3.694,5.326,6.765,6.765
				c0.834,0.391,1.829,0.203,2.48-0.448l1.753-1.753c1.439,0.828,2.975,1.505,4.592,2.001v2.683c0,0.921,0.571,1.757,1.437,2.071
				c3.189,1.154,6.378,1.154,9.567,0c0.866-0.313,1.437-1.15,1.437-2.071l0-2.475c1.634-0.441,3.195-1.06,4.659-1.838l1.9,1.9
				c0.651,0.651,1.647,0.839,2.481,0.448c3.071-1.439,5.326-3.694,6.765-6.765c0.391-0.834,0.203-1.829-0.448-2.48l-1.753-1.753
				c0.828-1.439,1.505-2.975,2.001-4.592h2.683c0.921,0,1.757-0.571,2.071-1.437C95.244,192.574,95.244,189.385,94.09,186.196z
				 M67.877,206.116c-8.562,0-15.502-6.941-15.502-15.502s6.941-15.502,15.502-15.502s15.502,6.941,15.502,15.502
				S76.438,206.116,67.877,206.116z"/>
			<path style="fill:#C2C2D1;" d="M342.042,222.147c-0.117-0.323-0.429-0.537-0.773-0.537h-0.924
				c-0.165-0.61-0.396-1.193-0.686-1.739l0.709-0.709c0.243-0.243,0.313-0.615,0.167-0.926c-0.537-1.147-1.379-1.989-2.526-2.526
				c-0.311-0.146-0.683-0.076-0.926,0.167l-0.654,0.654c-0.537-0.309-1.111-0.562-1.714-0.747v-1.002
				c0-0.344-0.213-0.656-0.537-0.773c-1.191-0.431-2.381-0.431-3.572,0c-0.323,0.117-0.536,0.429-0.536,0.773v0.924
				c-0.61,0.165-1.193,0.396-1.74,0.686l-0.709-0.709c-0.243-0.243-0.615-0.313-0.926-0.167c-1.147,0.537-1.988,1.379-2.526,2.526
				c-0.146,0.311-0.076,0.683,0.167,0.926l0.654,0.654c-0.309,0.537-0.562,1.111-0.747,1.714h-1.002
				c-0.344,0-0.656,0.213-0.773,0.537c-0.431,1.191-0.431,2.381,0,3.572c0.117,0.323,0.429,0.537,0.773,0.537h0.924
				c0.164,0.61,0.396,1.193,0.686,1.739l-0.709,0.709c-0.243,0.243-0.313,0.615-0.167,0.926c0.537,1.146,1.379,1.988,2.526,2.526
				c0.311,0.146,0.683,0.076,0.926-0.167l0.654-0.654c0.537,0.309,1.111,0.562,1.714,0.747v1.002c0,0.344,0.213,0.656,0.537,0.773
				c1.191,0.431,2.381,0.431,3.572,0c0.323-0.117,0.537-0.429,0.537-0.773v-0.924c0.61-0.165,1.193-0.396,1.739-0.686l0.709,0.709
				c0.243,0.243,0.615,0.313,0.926,0.167c1.146-0.537,1.988-1.379,2.526-2.526c0.146-0.311,0.076-0.683-0.167-0.926l-0.654-0.654
				c0.309-0.537,0.562-1.111,0.747-1.714h1.002c0.344,0,0.656-0.213,0.773-0.537C342.473,224.528,342.473,223.337,342.042,222.147z
				 M332.256,229.584c-3.196,0-5.788-2.591-5.788-5.788s2.591-5.788,5.788-5.788c3.196,0,5.788,2.591,5.788,5.788
				S335.452,229.584,332.256,229.584z"/>
			<path style="fill:#C2C2D1;" d="M85.082,242.366c-0.117-0.323-0.429-0.537-0.773-0.537h-0.924
				c-0.164-0.61-0.396-1.193-0.686-1.739l0.709-0.709c0.243-0.243,0.313-0.615,0.167-0.926c-0.537-1.146-1.379-1.988-2.526-2.526
				c-0.311-0.146-0.683-0.076-0.926,0.167l-0.654,0.654c-0.537-0.309-1.111-0.562-1.714-0.747v-1.002
				c0-0.344-0.213-0.656-0.537-0.773c-1.191-0.431-2.381-0.431-3.572,0c-0.323,0.117-0.536,0.429-0.536,0.773v0.924
				c-0.61,0.165-1.193,0.396-1.74,0.686l-0.709-0.709c-0.243-0.243-0.615-0.313-0.926-0.167c-1.146,0.537-1.988,1.379-2.526,2.526
				c-0.146,0.311-0.076,0.683,0.167,0.926l0.654,0.654c-0.309,0.537-0.562,1.111-0.747,1.714h-1.002
				c-0.344,0-0.656,0.213-0.773,0.537c-0.431,1.191-0.431,2.381,0,3.572c0.117,0.323,0.429,0.536,0.773,0.536h0.924
				c0.164,0.61,0.396,1.193,0.686,1.74l-0.709,0.709c-0.243,0.243-0.313,0.615-0.167,0.926c0.537,1.147,1.379,1.988,2.526,2.526
				c0.311,0.146,0.683,0.076,0.926-0.167l0.654-0.654c0.537,0.309,1.111,0.562,1.714,0.747v1.002c0,0.344,0.213,0.656,0.537,0.773
				c1.191,0.431,2.381,0.431,3.572,0c0.323-0.117,0.537-0.429,0.537-0.773v-0.924c0.61-0.165,1.193-0.396,1.739-0.686l0.709,0.709
				c0.243,0.243,0.615,0.313,0.926,0.167c1.146-0.537,1.988-1.379,2.526-2.526c0.146-0.311,0.076-0.683-0.167-0.926l-0.654-0.654
				c0.309-0.537,0.562-1.111,0.747-1.714h1.002c0.344,0,0.656-0.213,0.773-0.537C85.513,244.747,85.513,243.557,85.082,242.366z
				 M75.296,249.803c-3.196,0-5.788-2.591-5.788-5.788c0-3.196,2.591-5.788,5.788-5.788c3.196,0,5.788,2.591,5.788,5.788
				C81.084,247.212,78.492,249.803,75.296,249.803z"/>
			<g>
				<defs>
					<circle id="SVGID_1_" cx="361.394" cy="160.24" r="44.807"/>
				</defs>
				<use xlink:href="#SVGID_1_"  style="overflow:visible;fill:#FFFFFF;"/>
				<clipPath id="SVGID_00000108291281161892951050000010289963428705885622_">
					<use xlink:href="#SVGID_1_"  style="overflow:visible;"/>
				</clipPath>
				<g style="clip-path:url(#SVGID_00000108291281161892951050000010289963428705885622_);">
					<path style="fill:#FFC685;" d="M356.135,207.079l20.894-21.064c-0.09-0.067-0.179-0.134-0.267-0.202
						c-0.589-0.371-1.969-1.348-3.204-3.015c-1.669-2.252-3.718-5.931-2.522-10.911c0,0-12.11-4.476-18.847-0.096
						c0,0,2.09,9.818-3.973,13.524c0.97,9.858,2.657,17.613,3.697,21.764H356.135z"/>
					<ellipse style="fill:#FFC685;" cx="361.394" cy="154.79" rx="16.406" ry="22.001"/>
					<g>
						<path style="fill:#1B1B1B;" d="M370.6,151.618c0,1.059-0.51,1.917-1.14,1.917c-0.629,0-1.14-0.858-1.14-1.917
							c0-1.059,0.51-1.917,1.14-1.917C370.089,149.701,370.6,150.559,370.6,151.618z"/>
					</g>
					<g>
						<ellipse style="fill:#1B1B1B;" cx="353.329" cy="151.618" rx="1.14" ry="1.917"/>
					</g>
					<g style="opacity:0.48;">
						<g>
							<path style="fill:#FF9C91;" d="M375.456,158.905c0,1.794-1.709,3.249-3.817,3.249c-2.108,0-3.817-1.454-3.817-3.249
								c0-1.794,1.709-3.248,3.817-3.248C373.747,155.657,375.456,157.111,375.456,158.905z"/>
							<path style="fill:#FF9C91;" d="M347.333,158.905c0,1.794,1.709,3.249,3.817,3.249c2.108,0,3.817-1.454,3.817-3.249
								c0-1.794-1.709-3.248-3.817-3.248C349.042,155.657,347.333,157.111,347.333,158.905z"/>
						</g>
					</g>
					<g>
						<g>
							<g>
								<g>
									<path style="fill:#FFC685;" d="M377.387,151.693c0.586-0.257,0.831-0.814,1.605-0.933c5.498-0.85,3.658,11.805-2.24,10.834
										C376.752,161.594,375.198,152.65,377.387,151.693z"/>
								</g>
								<g>
									<path style="fill:#FFC685;" d="M345.512,151.693c-0.586-0.257-0.831-0.814-1.605-0.933
										c-5.498-0.85-3.658,11.805,2.24,10.834C346.146,161.594,347.7,152.65,345.512,151.693z"/>
								</g>
							</g>
						</g>
					</g>
					<path style="fill:#B85C44;" d="M377.056,185.988c0,0-0.11-0.059-0.294-0.175c0.088,0.068,0.177,0.135,0.267,0.202
						L377.056,185.988z"/>
					<polygon style="fill:#26A59A;" points="386.098,190.424 386.098,190.424 386.098,190.424 					"/>
					<path style="fill:#66B367;" d="M382.325,207.079c0.526-5.941,1.597-12.673,3.773-16.655c-0.003-0.001-1.617-0.514-3.796-1.551
						c-3.153-1.502-7.489-4.105-9.834-7.856c0,0-14.803,3.629-20.789-1.072c0,0-1.311,4.872-6.752,6.13
						c-0.441,0.102-1.432,3.364-1.604,3.767c-1.436,3.353-2.886,6.699-4.353,10.038c-1.051,2.394-2.274,4.783-3.476,7.2H382.325z"/>
					<g>
						<path style="fill:#FFA45E;" d="M361.18,150.719c0.192,0.895,0.286,1.812,0.262,2.733c-0.021,0.921-0.13,1.855-0.479,2.756
							c-0.079,0.226-0.208,0.44-0.324,0.656c-0.134,0.197-0.322,0.434-0.413,0.56c-0.231,0.304-0.27,0.579,0.006,0.87
							c0.56,0.556,1.469,0.888,2.313,1.181c-0.906-0.071-1.85-0.178-2.666-0.829c-0.198-0.166-0.38-0.435-0.399-0.749
							c-0.009-0.159,0.002-0.313,0.062-0.444c0.04-0.147,0.106-0.266,0.185-0.37l0.379-0.544c0.093-0.186,0.198-0.363,0.265-0.567
							c0.32-0.788,0.458-1.674,0.576-2.555C361.053,152.531,361.126,151.631,361.18,150.719z"/>
					</g>
					<path style="fill:#FFFFFF;" d="M365.298,163.712h-7.807c0,0,1.181,3.367,3.904,3.585
						C364.117,167.513,365.298,163.712,365.298,163.712z"/>
					<g>
						<g>
							<path style="fill:#1B1B1B;" d="M357.618,148.287c-1.431-0.409-2.648-0.552-3.907-0.521c-0.625,0.042-1.259,0.082-1.913,0.193
								c-0.329,0.041-0.656,0.122-1.005,0.165c-0.345,0.058-0.688,0.14-1.078,0.162c0.468-0.59,1.066-1.058,1.746-1.378
								c0.675-0.334,1.434-0.518,2.206-0.555c0.774-0.019,1.556,0.135,2.255,0.456C356.616,147.126,357.251,147.613,357.618,148.287
								z"/>
						</g>
						<g>
							<path style="fill:#1B1B1B;" d="M373.073,148.287c-1.431-0.409-2.648-0.552-3.907-0.521c-0.625,0.042-1.259,0.082-1.913,0.193
								c-0.329,0.041-0.657,0.122-1.005,0.165c-0.345,0.058-0.688,0.14-1.077,0.162c0.468-0.59,1.066-1.058,1.746-1.378
								c0.675-0.334,1.434-0.518,2.206-0.555c0.774-0.019,1.556,0.135,2.255,0.456C372.071,147.126,372.706,147.613,373.073,148.287
								z"/>
						</g>
					</g>
					<path style="fill:#FFA45E;" d="M352.189,173.003c0,0,10.289,7.374,18.669-0.247l0.204,5.043
						C371.063,177.799,357.507,180.974,352.189,173.003z"/>
					<path style="fill:#66B367;" d="M393.382,207.079c2.177-6.148,3.225-12.267,0.433-15.201
						c-6.715-7.059-21.347-10.861-21.347-10.861l-4.229,26.062H393.382z"/>
					<path style="fill:#66B367;" d="M342.504,207.079c4.239-8.221,11.48-23.413,9.175-27.134c0,0-10.777,1.47-14.45,6.07
						c-2.993,3.749-7.477,16.48-9.034,21.064H342.504z"/>
					<path style="fill:#1B1B1B;" d="M345.512,151.693c0,0-4.829-3.399-3.431-8.865c1.398-5.466,3.941-5.593,3.941-5.593
						s-3.982-8.39,5.128-11.823s12.924,1.78,12.924,1.78s6.945-2.797,12.689,3.305c5.744,6.102,2.486,9.916,2.486,9.916
						s4.991,5.399,2.218,11.28c0,0-3.397-1.02-4.704,3.096c0,0-3.79-10.182-4.553-10.309c-0.763-0.127-11.767,4.958-14.591-3.432
						C357.618,141.048,350.468,152.549,345.512,151.693z"/>
				</g>
			</g>
			<g>
				<g>
					
						<ellipse transform="matrix(0.1217 -0.9926 0.9926 0.1217 12.428 458.1592)" style="fill:#FFFFFF;stroke:#EDEDFF;stroke-width:0.9722;stroke-linecap:round;stroke-linejoin:round;stroke-miterlimit:10;" cx="265.087" cy="222.057" rx="17.78" ry="17.779"/>
					
						<ellipse style="fill:none;stroke:#EDEDFF;stroke-width:0.9722;stroke-linecap:round;stroke-linejoin:round;stroke-miterlimit:10;" cx="265.087" cy="222.057" rx="11.589" ry="17.78"/>
					
						<path style="fill:none;stroke:#EDEDFF;stroke-width:0.9722;stroke-linecap:round;stroke-linejoin:round;stroke-miterlimit:10;" d="
						M268.966,222.057c0,9.819-1.737,17.78-3.879,17.78s-3.879-7.96-3.879-17.78c0-9.819,1.737-17.78,3.879-17.78
						S268.966,212.238,268.966,222.057z"/>
					
						<ellipse style="fill:none;stroke:#EDEDFF;stroke-width:0.9722;stroke-linecap:round;stroke-linejoin:round;stroke-miterlimit:10;" cx="265.087" cy="222.057" rx="17.779" ry="11.589"/>
					
						<ellipse style="fill:none;stroke:#EDEDFF;stroke-width:0.9722;stroke-linecap:round;stroke-linejoin:round;stroke-miterlimit:10;" cx="265.087" cy="222.057" rx="17.779" ry="3.879"/>
				</g>
				<g>
					<path style="fill:#FF6454;" d="M286.586,210.468c0,4.093-3.318,7.41-7.411,7.41c-4.093,0-7.41-3.318-7.41-7.41
						c0-4.093,3.318-7.41,7.41-7.41C283.268,203.058,286.586,206.376,286.586,210.468z"/>
					
						<text transform="matrix(1 0 0 1 273.2031 212.6763)" style="fill:#FFFFFF; font-family:'Quicksand-Bold'; font-size:6.6732px;">232</text>
				</g>
			</g>
		</g>
	</g>
</g>
</svg>
